<svg xmlns="http://www.w3.org/2000/svg" viewBox="0 0 1024 1024">
  <defs>
    <radialGradient id="water" cx="50%" cy="43%" r="72%">
      <stop offset="0" stop-color="#0b3c43"/>
      <stop offset="0.58" stop-color="#05262c"/>
      <stop offset="1" stop-color="#021216"/>
    </radialGradient>
    <linearGradient id="edge" x1="0" y1="0" x2="1" y2="1">
      <stop stop-color="#8bf1ed"/>
      <stop offset="1" stop-color="#2bb9c4"/>
    </linearGradient>
    <filter id="glow" x="-60%" y="-60%" width="220%" height="220%">
      <feGaussianBlur stdDeviation="18"/>
    </filter>
  </defs>
  <rect width="1024" height="1024" rx="224" fill="url(#water)"/>
  <circle cx="512" cy="512" r="318" fill="none" stroke="#4bd8dd" stroke-opacity=".08" stroke-width="4"/>
  <circle cx="512" cy="512" r="250" fill="none" stroke="#4bd8dd" stroke-opacity=".1" stroke-width="4"/>
  <path d="M512 170 798 334v356L512 854 226 690V334Z" fill="#4bd8dd" fill-opacity=".08" stroke="#4bd8dd" stroke-opacity=".3" stroke-width="10"/>
  <circle cx="512" cy="512" r="146" fill="#4bd8dd" fill-opacity=".16" filter="url(#glow)"/>
  <path d="M512 266 714 382v260L512 758 310 642V382Z" fill="none" stroke="url(#edge)" stroke-width="24" stroke-linejoin="round"/>
  <path d="M512 354 638 426v172L512 670 386 598V426Z" fill="none" stroke="#e8d6bd" stroke-opacity=".66" stroke-width="18" stroke-linejoin="round"/>
  <path d="M512 431 582 471v82l-70 40-70-40v-82Z" fill="#4bd8dd" fill-opacity=".14" stroke="#4bd8dd" stroke-width="13" stroke-linejoin="round"/>
  <circle cx="512" cy="512" r="25" fill="#e8d6bd"/>
  <path d="M358 738c80-34 228-34 308 0" fill="none" stroke="#4bd8dd" stroke-opacity=".28" stroke-width="10" stroke-linecap="round"/>
</svg>
